<svg viewBox="0 0 32 32" xml:space="preserve" xmlns="http://www.w3.org/2000/svg"><text xml:space="preserve" style="font-style:normal;font-variant:normal;font-weight:400;font-stretch:normal;font-size:9.64337px;font-family:'Century Gothic';-inkscape-font-specification:'Century Gothic, Normal';font-variant-ligatures:normal;font-variant-caps:normal;font-variant-numeric:normal;font-variant-east-asian:normal;fill:#000;fill-opacity:1;stroke:#000;stroke-width:.239945;stroke-linejoin:round" x="6.821" y="10.43" transform="scale(.88428 1.13087)"><tspan style="font-style:normal;font-variant:normal;font-weight:400;font-stretch:normal;font-size:9.64337px;font-family:'Century Gothic';-inkscape-font-specification:'Century Gothic, Normal';font-variant-ligatures:normal;font-variant-caps:normal;font-variant-numeric:normal;font-variant-east-asian:normal;fill:#000;fill-opacity:1;stroke-width:.239945" x="6.821" y="10.43">GNV</tspan></text><path style="fill:#98bc8f;fill-opacity:1;stroke:#000;stroke-width:.264583" d="M3.328 17.132c-.368-1.705 3.9-.173 5.647-1.31 1.222-.794 1.564-1.322 2.974-.681 1.199.544 2.217-.082 3.328-.219 1.459-.178 1.872.192 2.892.028 1.508-.243 1.622-.18 2.455.027.896.222 1.303-.34 2.892.055 1.291.321 1.828-1.13 1.637-2.347-.207-1.316-.987-1.7-1.883-1.445-1.033.293-.496 1.287-1.01 1.718-.607.51-.914-.968-.572-1.718.506-1.112 1.258-1.602 2.128-1.692 1.553-.16 2.213.669 2.646 1.473.539 1.002.915 1.914.955 2.837.045 1.034-.002 2.07-.41 3.056-.393.953-1 1.62-1.854 2.373-.791.698-1.992.51-2.947.655-2.332.355-4.1.409-7.174.164-1.456-.116-1.831-.254-4.365-.655-2.787-.44-6.653.86-7.339-2.319Z" transform="translate(.631 2.012)"/><g style="fill:#000" transform="translate(.631 2.012)"><path style="mix-blend-mode:normal;fill:none;stroke:#000;stroke-width:.079375;stroke-dasharray:none" d="m3.628 18.005.573-.436.382.463.518-.409.355.437.491-.355.3.355.41-.355.327.355.409-.41.3.41.464-.355.436.355"/><ellipse style="fill:#000;stroke:#000;stroke-width:.264583" cx="10.694" cy="15.809" rx=".218" ry=".205"/><g style="fill:#000" transform="translate(4.336 -5.655) scale(1.2636)"><ellipse style="fill:#000;stroke:#000;stroke-width:.079375;stroke-dasharray:none" cx="14.186" cy="20.91" rx="1.691" ry="1.732"/><ellipse style="fill:#fff;stroke:#fff;stroke-width:.0198437;stroke-dasharray:none" cx="14.193" cy="20.912" rx=".423" ry=".433"/></g><path style="fill:#000;stroke:#000;stroke-width:.079375;stroke-dasharray:none" d="M13.749 16.041h1.309v1.309h-1.309zM15.576 16.035h1.309v1.309h-1.309zM17.336 16.043h1.309v1.309h-1.309zM19.068 16.035h1.309v1.309h-1.309zM20.849 16.035h1.309v1.309h-1.309z"/><g style="fill:#000" transform="translate(-4.355 -5.53) scale(1.2636)"><ellipse style="fill:#000;stroke:#000;stroke-width:.079375;stroke-dasharray:none" cx="14.186" cy="20.91" rx="1.691" ry="1.732"/><ellipse style="fill:#fff;stroke:#fff;stroke-width:.0198437;stroke-dasharray:none" cx="14.193" cy="20.912" rx=".423" ry=".433"/></g></g></svg>